<?xml version="1.0" encoding="utf-8"?>
<!-- Generator: Adobe Illustrator 27.0.0, SVG Export Plug-In . SVG Version: 6.00 Build 0)  -->
<svg version="1.1" id="Layer_1" xmlns="http://www.w3.org/2000/svg" xmlns:xlink="http://www.w3.org/1999/xlink" x="0px" y="0px"
	 viewBox="0 0 400 400" style="enable-background:new 0 0 400 400;" xml:space="preserve">
<style type="text/css">
	.st0{fill:#00A99D;}
	.st1{fill:#CCCCCC;}
	.st2{fill:#F2F2F2;}
	.st3{fill:#C7B299;}
	.st4{fill:#FFFFFF;}
	.st5{fill:#FF0000;}
	.st6{fill:none;stroke:#000000;stroke-width:0.25;stroke-miterlimit:10;}
	.st7{fill:#8C6239;}
	.st8{fill:url(#SVGID_1_);}
	.st9{fill:#C9AD8F;}
</style>
<g>
	<rect class="st0" width="400" height="400"/>
	<g>
		<path class="st1" d="M63.3,385.3h268.5c4.3,0,7.8-3.5,7.8-7.8V47c0-4.3-3.5-7.8-7.8-7.8H63.3c-4.3,0-7.8,3.5-7.8,7.8v330.5
			C55.5,381.8,59,385.3,63.3,385.3z"/>
		<path class="st2" d="M186.8,125.9L93.6,138c-4.7,0.6-8.9-2.7-9.5-7.3l-7.2-56c-0.6-4.7,2.7-8.9,7.3-9.5L177.4,53
			c4.7-0.6,8.9,2.7,9.5,7.3l7.2,56C194.8,121,191.5,125.3,186.8,125.9z"/>
		<path class="st2" d="M293.2,146.9l-87.5-34.4c-4.4-1.7-6.5-6.6-4.8-11l20.6-52.6c1.7-4.4,6.6-6.5,11-4.8L320,78.5
			c4.4,1.7,6.5,6.6,4.8,11l-20.6,52.6C302.5,146.5,297.6,148.6,293.2,146.9z"/>
		<path class="st3" d="M168.2,113.5c0,17.6-14.3,31.8-31.8,31.8s-31.8-14.3-31.8-31.8c0-0.9,0-1.7,0.1-2.6c0.1-1.1,0.2-2.1,0.4-3.2
			c0.1-0.5,0.2-1.1,0.3-1.6c0.2-1,0.5-2.1,0.9-3.1c0.2-0.7,0.5-1.4,0.8-2.1c4.9-11.3,16.1-19.3,29.3-19.3c11.5,0,21.5,6.1,27.1,15.2
			c0.3,0.5,0.6,1,0.9,1.6c0.5,0.9,0.9,1.9,1.4,2.8c0.2,0.5,0.4,1,0.6,1.6c0.3,0.9,0.6,1.9,0.9,2.8
			C167.8,108.1,168.2,110.7,168.2,113.5z"/>
		<circle class="st4" cx="148.2" cy="104.2" r="6.9"/>
		<circle class="st4" cx="122.8" cy="104.2" r="6.9"/>
		<polygon class="st5" points="154,100 150.7,103.2 153.3,108.2 148.6,105.3 146.6,111 147.4,105.3 142.5,104.9 145.8,103.2 
			144.2,100.6 148.6,102 148.6,98 150,100.8 		"/>
		<circle cx="149.1" cy="104.7" r="4.4"/>
		<polygon class="st5" points="127.3,100 124.1,103.2 128.4,108.2 122,105.3 120.8,111 120.8,105.3 115.9,104.9 119.2,103.2 
			117.6,100.6 122,102 122,98 123.4,100.8 		"/>
		<ellipse cx="122" cy="104.5" rx="4.4" ry="4.6"/>
		<path d="M163.3,119.2c-4.9,10.8-8.8,13.2-11.4,13.1c-2.5-0.1-4.1-2.4-6.5-1.6c-2.7,0.9-2.2,4.2-4.9,6.5c-0.5,0.4-1,0.8-1.6,1.1
			c-1.4,0.7-3.1,1.1-4.9,1.2c-0.6,0-1.1,0-1.6,0c-1.7-0.1-3.5-0.5-4.9-1.2c-1.4-0.7-2.6-1.6-3.3-2.7c-1.9-3.1,0.5-6.6-1.6-8.2
			c-2-1.5-4.9,1.2-8.2,0c-2.7-1-4.1-3.9-4.9-6.5l19.6-0.6l4.9-0.1l1.6,0l4.9-0.2l3.3-0.1l4.9-0.1l3.3-0.1l4.9-0.1L163.3,119.2z"/>
		<path class="st6" d="M140.4,113.7c-2.8,2.7-4.2,2.8-4.9,2.2c-0.8-0.6-1-2.2-1.6-2.2c-0.7,0-0.8,1.7-1.6,2.2
			c-0.6,0.3-1.5,0.1-3.3-2.2"/>
		<path class="st6" d="M133.9,101.2c0.1,1,0.3,4-1.6,6.5c-0.5,0.7-1.1,1.2-1.6,1.6"/>
		<path class="st7" d="M138.8,93.1l-0.6,5.6l-31.2,2.3c4.9-11.3,16.1-19.3,29.3-19.3c11.5,0,21.5,6.1,27.1,15.2l-18.8,1.4l-4.2-5
			l1.6,5.2"/>
		<path class="st2" d="M275.9,344.5c-37.2-1.2-29.8-36.4-66.9-37.6c-37.5-1.2-96.1,59.6-133.6,58.4c-2-1.4-7-3.2-6.9-7.3
			c1.3-39.9,13.4-76.5,14.7-116.4c1-29.9-9-63.1-8-93c0-0.5,0.1-3,2.2-5c1.3-1.2,3.1-2,5.1-1.9c48.1,1.5,73.3-7.8,121.5-6.3
			c26.5,0.9,63.7,26.1,102.5,13.4c0.5,0,3,0.1,5,2.2c1.2,1.3,2,3.1,1.9,5.1c-0.5,23.4-23.9,45.3-24.5,69
			c-1.3,46.8-4.5,50.7-6.5,96.3C282.4,322.1,283.1,340.6,275.9,344.5z"/>
		<linearGradient id="SVGID_1_" gradientUnits="userSpaceOnUse" x1="160.8849" y1="148.917" x2="152.7699" y2="127.1955">
			<stop  offset="0.8243" style="stop-color:#D40029"/>
			<stop  offset="1" style="stop-color:#D40029;stop-opacity:0"/>
		</linearGradient>
		<path class="st8" d="M156.7,125.7c4.1,9.6,8,20.7,4.9,22.9c-1.1,0.7-2.6,0.2-3.3,0c-5.1-1.7-4.9-9.8-8.2-19.6"/>
		<polygon class="st4" points="156.7,119.4 156.7,122.4 151.8,122.4 151.8,119.5 		"/>
		<polygon class="st4" points="148.6,119.6 148.6,124.1 143.7,124.1 143.7,119.8 		"/>
		<polygon class="st4" points="140.4,119.9 140.4,124.1 135.5,124.1 135.5,120 		"/>
		<polygon class="st4" points="133.9,120.1 133.9,124.1 129,124.1 129,120.2 		"/>
		<polygon class="st4" points="125.7,120.3 125.7,124.1 122.4,124.1 122.4,120.4 		"/>
		<polygon class="st4" points="119.2,120.5 119.2,122.4 115.9,122.4 115.9,120.6 		"/>
		<path class="st2" d="M138.8,135.5v2.7c-1.4,0.7-3.1,1.1-4.9,1.2v-3.9H138.8z"/>
		<path class="st2" d="M132.2,135.5v3.9c-1.7-0.1-3.5-0.5-4.9-1.2v-2.7H132.2z"/>
		<path class="st9" d="M106.2,103.1c-0.4,1-0.7,2-0.9,3.1c-0.1,0.5-0.2,1.1-0.3,1.6c-0.2,1-0.3,2.1-0.4,3.2c-1-0.3-1.7-1.2-1.7-2.3
			c0-0.6,0.2-1.2,0.6-1.6c-0.4-0.4-0.6-1-0.6-1.6c0-1.4,1.1-2.4,2.4-2.4C105.6,102.9,106,102.9,106.2,103.1z"/>
		<path class="st9" d="M167.5,102c0.4,0.4,0.6,1,0.6,1.6c0,0.8-0.4,1.5-1,1.9c-0.2-1-0.5-1.9-0.9-2.8c-0.2-0.5-0.4-1-0.6-1.6
			c-0.4-1-0.8-1.9-1.4-2.8c0.4-0.3,0.8-0.4,1.4-0.4c1.4,0,2.4,1.1,2.4,2.4C168.2,101,167.9,101.6,167.5,102z"/>
	</g>
</g>
</svg>
