<?xml version="1.0" encoding="utf-8"?>
<!-- Generator: Adobe Illustrator 27.0.0, SVG Export Plug-In . SVG Version: 6.00 Build 0)  -->
<svg version="1.1" xmlns="http://www.w3.org/2000/svg" xmlns:xlink="http://www.w3.org/1999/xlink" x="0px" y="0px"
	 viewBox="0 0 100 100" style="enable-background:new 0 0 100 100;" xml:space="preserve">
<style type="text/css">
	.st0{fill:#FFDA00;}
	.st1{display:none;}
	.st2{display:inline;}
	.st3{fill:none;stroke:#000000;stroke-width:2;stroke-miterlimit:10;}
	.st4{fill:#E6E6E6;stroke:#000000;stroke-width:0.5;stroke-miterlimit:10;}
	.st5{fill:none;stroke:#000000;stroke-miterlimit:10;}
	.st6{fill:#C69C6D;stroke:#8C6239;stroke-width:3;stroke-miterlimit:10;}
	.st7{fill:#A67C52;stroke:#A67C52;stroke-miterlimit:10;}
	.st8{display:inline;fill:#FFE300;stroke:#FFCE00;stroke-linecap:round;stroke-linejoin:round;stroke-miterlimit:10;}
	
		.st9{display:inline;fill:#FFE300;stroke:#FFCE00;stroke-width:0.5;stroke-linecap:round;stroke-linejoin:round;stroke-miterlimit:10;}
</style>
<g id="Layer_1">
	<g>
		<path class="st0" d="M48.1,89.9c0-0.1,0-0.2,0-0.4c0-1.4-1.2-2.6-2.6-2.6s-2.6,1.2-2.6,2.6c0,0.1,0,0.3,0,0.4H12.1V71.1
			c3.9-0.3,7-3.6,7-7.6s-3.1-7.3-7-7.6V22c1.1,0.8,2.5,1.1,3.9,1.1c3.9,0,7.1-3.2,7.1-7.1c0-1-0.2-2-0.6-2.9h35.8
			c-0.3,0.8-0.4,1.6-0.4,2.4c0,3.7,3,6.6,6.6,6.6s6.6-3,6.6-6.6c0-0.8-0.1-1.6-0.4-2.4h18.2v57.8c-2.2,0.1-4,1.9-4,4.1
			s1.8,4.1,4,4.1v10.8H48.1z M52,66.9c-2.3,0-4.1,1.9-4.1,4.1s1.9,4.1,4.1,4.1s4.1-1.9,4.1-4.1S54.3,66.9,52,66.9z M42.5,30.9
			c-5.9,0-10.6,4.8-10.6,10.6s4.8,10.6,10.6,10.6s10.6-4.8,10.6-10.6S48.4,30.9,42.5,30.9z M71,41.9c-2.3,0-4.1,1.9-4.1,4.1
			s1.9,4.1,4.1,4.1s4.1-1.9,4.1-4.1S73.3,41.9,71,41.9z"/>
		<path d="M88.8,13.2v57.5c-2.2,0.1-4,2-4,4.2s1.8,4.1,4,4.2v10.5H48.2c0-0.1,0-0.2,0-0.2c0-1.5-1.2-2.8-2.8-2.8s-2.8,1.2-2.8,2.8
			c0,0.1,0,0.2,0,0.2H12.2V71.2c3.9-0.4,7-3.7,7-7.7c0-4-3.1-7.3-7-7.7V22.2c1.1,0.7,2.4,1,3.8,1c4,0,7.2-3.3,7.2-7.2
			c0-1-0.2-1.9-0.5-2.8h35.4c-0.3,0.7-0.4,1.5-0.4,2.2c0,3.7,3,6.8,6.8,6.8c3.7,0,6.8-3,6.8-6.8c0-0.8-0.1-1.5-0.4-2.2H88.8
			 M42.5,52.2c5.9,0,10.8-4.8,10.8-10.8s-4.8-10.8-10.8-10.8s-10.8,4.8-10.8,10.8S36.6,52.2,42.5,52.2 M71,50.2
			c2.3,0,4.2-1.9,4.2-4.2s-1.9-4.2-4.2-4.2s-4.2,1.9-4.2,4.2S68.7,50.2,71,50.2 M52,75.2c2.3,0,4.2-1.9,4.2-4.2s-1.9-4.2-4.2-4.2
			s-4.2,1.9-4.2,4.2S49.7,75.2,52,75.2 M89,13H70.5c0.3,0.8,0.5,1.6,0.5,2.5c0,3.6-2.9,6.5-6.5,6.5c-3.6,0-6.5-2.9-6.5-6.5
			c0-0.9,0.2-1.7,0.5-2.5H22.3c0.4,0.9,0.7,1.9,0.7,3c0,3.9-3.1,7-7,7c-1.5,0-2.9-0.5-4-1.3V56c3.9,0.2,7,3.5,7,7.5
			c0,4-3.1,7.2-7,7.5v19h31c0-0.2,0-0.3,0-0.5c0-1.4,1.1-2.5,2.5-2.5s2.5,1.1,2.5,2.5c0,0.2,0,0.3,0,0.5h41V79c-2.2,0-4-1.8-4-4
			c0-2.2,1.8-4,4-4V13L89,13z M42.5,52C36.7,52,32,47.3,32,41.5S36.7,31,42.5,31S53,35.7,53,41.5S48.3,52,42.5,52L42.5,52z M71,50
			c-2.2,0-4-1.8-4-4c0-2.2,1.8-4,4-4s4,1.8,4,4C75,48.2,73.2,50,71,50L71,50z M52,75c-2.2,0-4-1.8-4-4c0-2.2,1.8-4,4-4s4,1.8,4,4
			C56,73.2,54.2,75,52,75L52,75z"/>
	</g>
</g>
<g id="Layer_3" class="st1">
	<g class="st2">
		<ellipse transform="matrix(0.9794 -0.202 0.202 0.9794 -11.1812 18.6593)" class="st3" cx="85.8" cy="64.1" rx="10.3" ry="7.5"/>
		<path class="st4" d="M87.4,50c0,20.4-16.6,37-37,37s-37-16.6-37-37c0-0.2,0-0.4,0-0.6h74C87.4,49.6,87.4,49.8,87.4,50z"/>
		<path class="st4" d="M86.1,85.1c0,2.5-16,4.5-35.7,4.5s-35.7-2-35.7-4.5c0-0.2,0.1-0.4,0.4-0.6h70.7C86,84.6,86.1,84.8,86.1,85.1z
			"/>
		<path class="st5" d="M62.7,13c5.4,6.2,5.9,10.3,5.2,13c-0.8,3.1-3.3,4.2-3.9,7.8c-0.6,3.5,1,6.8,2.6,9.1"/>
		<path class="st5" d="M47.1,13c5.4,6.2,5.9,10.3,5.2,13c-0.8,3.1-3.3,4.2-3.9,7.8c-0.6,3.5,1,6.8,2.6,9.1"/>
		<path class="st5" d="M32.8,13c5.4,6.2,5.9,10.3,5.2,13c-0.8,3.1-3.3,4.2-3.9,7.8c-0.6,3.5,1,6.8,2.6,9.1"/>
	</g>
</g>
<g id="Layer_4" class="st1">
	<g class="st2">
		<path class="st6" d="M88.2,25.8v6.9c0,3.4-2.8,6.2-6.2,6.2h-0.1l3,48.3c0,1.8-1.5,3.3-3.3,3.3H18.4c-1.8,0-3.3-1.5-3.3-3.3
			l3.1-48.3c-3-0.4-5.3-3-5.3-6.1v-6.9c0-3.4,2.8-6.2,6.2-6.2H82C85.4,19.6,88.2,22.4,88.2,25.8z"/>
		<circle class="st7" cx="70.5" cy="30.5" r="0.5"/>
		<circle class="st7" cx="67.5" cy="37.5" r="1.5"/>
		<circle class="st7" cx="59" cy="32" r="2"/>
		<circle class="st7" cx="37.5" cy="77.5" r="1.5"/>
		<circle class="st7" cx="30" cy="75" r="2"/>
		<circle class="st7" cx="26.5" cy="45.5" r="1.5"/>
	</g>
</g>
<g id="Layer_5" class="st1">
	<polyline class="st8" points="81.5,27.5 81.5,45.2 29.5,55.5 21.5,43.5 21.5,26.5 	"/>
	<polygon class="st8" points="81.5,27.5 29.5,36.5 21.5,26.5 	"/>
	<line class="st8" x1="29.5" y1="36.5" x2="29.5" y2="55.5"/>
	<circle class="st9" cx="67.5" cy="36.5" r="2"/>
	<ellipse transform="matrix(0.949 -0.3152 0.3152 0.949 -7.7761 17.9139)" class="st9" cx="51.5" cy="33" rx="3" ry="2.5"/>
	<circle class="st9" cx="35" cy="49" r="3.5"/>
	<circle class="st9" cx="25.5" cy="38.5" r="1"/>
</g>
</svg>
