<?xml version="1.0" encoding="utf-8"?>
<!-- Generator: Adobe Illustrator 27.0.0, SVG Export Plug-In . SVG Version: 6.00 Build 0)  -->
<svg version="1.1" xmlns="http://www.w3.org/2000/svg" xmlns:xlink="http://www.w3.org/1999/xlink" x="0px" y="0px"
	 viewBox="0 0 400 400" style="enable-background:new 0 0 400 400;" xml:space="preserve">
<style type="text/css">
	.st0{fill:none;}
	.st1{fill:none;stroke:#231F20;stroke-width:0.3;}
	.st2{display:none;}
	.st3{display:inline;}
	.st4{fill:#00A99D;}
	.st5{fill:#CCCCCC;}
	.st6{fill:#F2F2F2;}
	.st7{fill:#C7B299;}
	.st8{fill:#FFFFFF;}
	.st9{fill:#FF0000;}
	.st10{fill:none;stroke:#000000;stroke-width:0.25;stroke-miterlimit:10;}
	.st11{fill:#8C6239;}
	.st12{fill:url(#SVGID_1_);}
	.st13{fill:#C9AD8F;}
	.st14{fill:#A67C52;}
	.st15{fill:none;stroke:#000000;stroke-miterlimit:10;}
	.st16{fill:#E6E6E6;}
	.st17{fill:url(#SVGID_00000174586358477770007850000008502701817045632171_);}
	.st18{fill:#603813;}
	.st19{fill:#754C24;stroke:#000000;stroke-miterlimit:10;}
	.st20{fill:#C69C6D;}
	.st21{fill:url(#SVGID_00000115505337544389601530000009108378073549321619_);}
	.st22{display:inline;fill:url(#SVGID_00000124129035818223289180000001462031908598719930_);}
	.st23{display:inline;fill:url(#SVGID_00000168084578717746294670000002455207546541860777_);}
	.st24{display:inline;fill:none;stroke:#000000;stroke-miterlimit:10;}
	.st25{fill:#FFE300;stroke:#FFCE00;stroke-linecap:round;stroke-linejoin:round;stroke-miterlimit:10;}
	.st26{fill:#FFE300;stroke:#FFCE00;stroke-width:0.5;stroke-linecap:round;stroke-linejoin:round;stroke-miterlimit:10;}
	.st27{display:inline;fill:#CCCCCC;}
</style>
<pattern  width="72" height="72" patternUnits="userSpaceOnUse" id="Grid_1_pica_Lines" viewBox="72.2 -144.2 72 72" style="overflow:visible;">
	<g>
		<rect x="72.2" y="-144.2" class="st0" width="72" height="72"/>
		<g>
			<line class="st1" x1="78.2" y1="-72.5" x2="78.2" y2="0"/>
			<line class="st1" x1="102.2" y1="-72.5" x2="102.2" y2="0"/>
			<line class="st1" x1="126.2" y1="-72.5" x2="126.2" y2="0"/>
			<line class="st1" x1="90.2" y1="-72.5" x2="90.2" y2="0"/>
			<line class="st1" x1="114.2" y1="-72.5" x2="114.2" y2="0"/>
			<line class="st1" x1="138.2" y1="-72.5" x2="138.2" y2="0"/>
		</g>
		<g>
			<line class="st1" x1="144" y1="-78.2" x2="216.5" y2="-78.2"/>
			<line class="st1" x1="144" y1="-102.2" x2="216.5" y2="-102.2"/>
			<line class="st1" x1="144" y1="-126.2" x2="216.5" y2="-126.2"/>
			<line class="st1" x1="144" y1="-90.2" x2="216.5" y2="-90.2"/>
			<line class="st1" x1="144" y1="-114.2" x2="216.5" y2="-114.2"/>
			<line class="st1" x1="144" y1="-138.2" x2="216.5" y2="-138.2"/>
		</g>
		<g>
			<line class="st1" x1="78.2" y1="-144.5" x2="78.2" y2="-72"/>
			<line class="st1" x1="102.2" y1="-144.5" x2="102.2" y2="-72"/>
			<line class="st1" x1="126.2" y1="-144.5" x2="126.2" y2="-72"/>
			<line class="st1" x1="72" y1="-78.2" x2="144.5" y2="-78.2"/>
			<line class="st1" x1="72" y1="-102.2" x2="144.5" y2="-102.2"/>
			<line class="st1" x1="72" y1="-126.2" x2="144.5" y2="-126.2"/>
			<line class="st1" x1="72" y1="-90.2" x2="144.5" y2="-90.2"/>
			<line class="st1" x1="72" y1="-114.2" x2="144.5" y2="-114.2"/>
			<line class="st1" x1="72" y1="-138.2" x2="144.5" y2="-138.2"/>
			<line class="st1" x1="90.2" y1="-144.5" x2="90.2" y2="-72"/>
			<line class="st1" x1="114.2" y1="-144.5" x2="114.2" y2="-72"/>
			<line class="st1" x1="138.2" y1="-144.5" x2="138.2" y2="-72"/>
		</g>
		<g>
			<line class="st1" x1="0" y1="-78.2" x2="72.5" y2="-78.2"/>
			<line class="st1" x1="0" y1="-102.2" x2="72.5" y2="-102.2"/>
			<line class="st1" x1="0" y1="-126.2" x2="72.5" y2="-126.2"/>
			<line class="st1" x1="0" y1="-90.2" x2="72.5" y2="-90.2"/>
			<line class="st1" x1="0" y1="-114.2" x2="72.5" y2="-114.2"/>
			<line class="st1" x1="0" y1="-138.2" x2="72.5" y2="-138.2"/>
		</g>
		<g>
			<line class="st1" x1="78.2" y1="-216.5" x2="78.2" y2="-144"/>
			<line class="st1" x1="102.2" y1="-216.5" x2="102.2" y2="-144"/>
			<line class="st1" x1="126.2" y1="-216.5" x2="126.2" y2="-144"/>
			<line class="st1" x1="90.2" y1="-216.5" x2="90.2" y2="-144"/>
			<line class="st1" x1="114.2" y1="-216.5" x2="114.2" y2="-144"/>
			<line class="st1" x1="138.2" y1="-216.5" x2="138.2" y2="-144"/>
		</g>
	</g>
</pattern>
<g id="Layer_1" class="st2">
	<g class="st3">
		<rect class="st4" width="400" height="400"/>
		<g>
			<path class="st5" d="M63.3,385.3h268.5c4.3,0,7.8-3.5,7.8-7.8V47c0-4.3-3.5-7.8-7.8-7.8H63.3c-4.3,0-7.8,3.5-7.8,7.8v330.5
				C55.5,381.8,59,385.3,63.3,385.3z"/>
			<path class="st6" d="M186.8,125.9L93.6,138c-4.7,0.6-8.9-2.7-9.5-7.3l-7.2-56c-0.6-4.7,2.7-8.9,7.3-9.5L177.4,53
				c4.7-0.6,8.9,2.7,9.5,7.3l7.2,56C194.8,121,191.5,125.3,186.8,125.9z"/>
			<path class="st6" d="M293.2,146.9l-87.5-34.4c-4.4-1.7-6.5-6.6-4.8-11l20.6-52.6c1.7-4.4,6.6-6.5,11-4.8L320,78.5
				c4.4,1.7,6.5,6.6,4.8,11l-20.6,52.6C302.5,146.5,297.6,148.6,293.2,146.9z"/>
			<path class="st7" d="M168.2,113.5c0,17.6-14.3,31.8-31.8,31.8s-31.8-14.3-31.8-31.8c0-0.9,0-1.7,0.1-2.6c0.1-1.1,0.2-2.1,0.4-3.2
				c0.1-0.5,0.2-1.1,0.3-1.6c0.2-1,0.5-2.1,0.9-3.1c0.2-0.7,0.5-1.4,0.8-2.1c4.9-11.3,16.1-19.3,29.3-19.3
				c11.5,0,21.5,6.1,27.1,15.2c0.3,0.5,0.6,1,0.9,1.6c0.5,0.9,0.9,1.9,1.4,2.8c0.2,0.5,0.4,1,0.6,1.6c0.3,0.9,0.6,1.9,0.9,2.8
				C167.8,108.1,168.2,110.7,168.2,113.5z"/>
			<circle class="st8" cx="148.2" cy="104.2" r="6.9"/>
			<circle class="st8" cx="122.8" cy="104.2" r="6.9"/>
			<polygon class="st9" points="154,100 150.7,103.2 153.3,108.2 148.6,105.3 146.6,111 147.4,105.3 142.5,104.9 145.8,103.2 
				144.2,100.6 148.6,102 148.6,98 150,100.8 			"/>
			<circle cx="149.1" cy="104.7" r="4.4"/>
			<polygon class="st9" points="127.3,100 124.1,103.2 128.4,108.2 122,105.3 120.8,111 120.8,105.3 115.9,104.9 119.2,103.2 
				117.6,100.6 122,102 122,98 123.4,100.8 			"/>
			<ellipse cx="122" cy="104.5" rx="4.4" ry="4.6"/>
			<path d="M163.3,119.2c-4.9,10.8-8.8,13.2-11.4,13.1c-2.5-0.1-4.1-2.4-6.5-1.6c-2.7,0.9-2.2,4.2-4.9,6.5c-0.5,0.4-1,0.8-1.6,1.1
				c-1.4,0.7-3.1,1.1-4.9,1.2c-0.6,0-1.1,0-1.6,0c-1.7-0.1-3.5-0.5-4.9-1.2c-1.4-0.7-2.6-1.6-3.3-2.7c-1.9-3.1,0.5-6.6-1.6-8.2
				c-2-1.5-4.9,1.2-8.2,0c-2.7-1-4.1-3.9-4.9-6.5l19.6-0.6l4.9-0.1l1.6,0l4.9-0.2l3.3-0.1l4.9-0.1l3.3-0.1l4.9-0.1L163.3,119.2z"/>
			<path class="st10" d="M140.4,113.7c-2.8,2.7-4.2,2.8-4.9,2.2c-0.8-0.6-1-2.2-1.6-2.2c-0.7,0-0.8,1.7-1.6,2.2
				c-0.6,0.3-1.5,0.1-3.3-2.2"/>
			<path class="st10" d="M133.9,101.2c0.1,1,0.3,4-1.6,6.5c-0.5,0.7-1.1,1.2-1.6,1.6"/>
			<path class="st11" d="M138.8,93.1l-0.6,5.6l-31.2,2.3c4.9-11.3,16.1-19.3,29.3-19.3c11.5,0,21.5,6.1,27.1,15.2l-18.8,1.4l-4.2-5
				l1.6,5.2"/>
			<path class="st6" d="M275.9,344.5c-37.2-1.2-29.8-36.4-66.9-37.6c-37.5-1.2-96.1,59.6-133.6,58.4c-2-1.4-7-3.2-6.9-7.3
				c1.3-39.9,13.4-76.5,14.7-116.4c1-29.9-9-63.1-8-93c0-0.5,0.1-3,2.2-5c1.3-1.2,3.1-2,5.1-1.9c48.1,1.5,73.3-7.8,121.5-6.3
				c26.5,0.9,63.7,26.1,102.5,13.4c0.5,0,3,0.1,5,2.2c1.2,1.3,2,3.1,1.9,5.1c-0.5,23.4-23.9,45.3-24.5,69
				c-1.3,46.8-4.5,50.7-6.5,96.3C282.4,322.1,283.1,340.6,275.9,344.5z"/>
			<linearGradient id="SVGID_1_" gradientUnits="userSpaceOnUse" x1="160.8849" y1="148.917" x2="152.7699" y2="127.1955">
				<stop  offset="0.8243" style="stop-color:#D40029"/>
				<stop  offset="1" style="stop-color:#D40029;stop-opacity:0"/>
			</linearGradient>
			<path class="st12" d="M156.7,125.7c4.1,9.6,8,20.7,4.9,22.9c-1.1,0.7-2.6,0.2-3.3,0c-5.1-1.7-4.9-9.8-8.2-19.6"/>
			<polygon class="st8" points="156.7,119.4 156.7,122.4 151.8,122.4 151.8,119.5 			"/>
			<polygon class="st8" points="148.6,119.6 148.6,124.1 143.7,124.1 143.7,119.8 			"/>
			<polygon class="st8" points="140.4,119.9 140.4,124.1 135.5,124.1 135.5,120 			"/>
			<polygon class="st8" points="133.9,120.1 133.9,124.1 129,124.1 129,120.2 			"/>
			<polygon class="st8" points="125.7,120.3 125.7,124.1 122.4,124.1 122.4,120.4 			"/>
			<polygon class="st8" points="119.2,120.5 119.2,122.4 115.9,122.4 115.9,120.6 			"/>
			<path class="st6" d="M138.8,135.5v2.7c-1.4,0.7-3.1,1.1-4.9,1.2v-3.9H138.8z"/>
			<path class="st6" d="M132.2,135.5v3.9c-1.7-0.1-3.5-0.5-4.9-1.2v-2.7H132.2z"/>
			<path class="st13" d="M106.2,103.1c-0.4,1-0.7,2-0.9,3.1c-0.1,0.5-0.2,1.1-0.3,1.6c-0.2,1-0.3,2.1-0.4,3.2
				c-1-0.3-1.7-1.2-1.7-2.3c0-0.6,0.2-1.2,0.6-1.6c-0.4-0.4-0.6-1-0.6-1.6c0-1.4,1.1-2.4,2.4-2.4C105.6,102.9,106,102.9,106.2,103.1
				z"/>
			<path class="st13" d="M167.5,102c0.4,0.4,0.6,1,0.6,1.6c0,0.8-0.4,1.5-1,1.9c-0.2-1-0.5-1.9-0.9-2.8c-0.2-0.5-0.4-1-0.6-1.6
				c-0.4-1-0.8-1.9-1.4-2.8c0.4-0.3,0.8-0.4,1.4-0.4c1.4,0,2.4,1.1,2.4,2.4C168.2,101,167.9,101.6,167.5,102z"/>
		</g>
	</g>
</g>
<g id="Layer_2" class="st2">
	<g class="st3">
		<rect x="-0.1" y="0.1" class="st4" width="399.9" height="399.9"/>
		<g>
			<rect x="51.7" y="9.3" class="st14" width="348.3" height="132.6"/>
			<rect x="53" y="258.9" class="st14" width="346.9" height="140"/>
			<line class="st15" x1="307.8" y1="258.9" x2="307.8" y2="398.9"/>
			<line class="st15" x1="398.9" y1="287.1" x2="307.8" y2="287.1"/>
			<line class="st15" x1="398.9" y1="316.6" x2="307.8" y2="316.6"/>
			<line class="st15" x1="398.9" y1="346.1" x2="307.8" y2="346.1"/>
			<line class="st15" x1="366.7" y1="272.4" x2="339.2" y2="272.4"/>
			<line class="st15" x1="366.7" y1="301.9" x2="339.2" y2="301.9"/>
			<line class="st15" x1="366.7" y1="331.4" x2="339.2" y2="331.4"/>
			<line class="st15" x1="366.7" y1="360.8" x2="339.2" y2="360.8"/>
			<line class="st15" x1="223.2" y1="9.3" x2="223.2" y2="141.9"/>
			<line class="st15" x1="307.8" y1="9.3" x2="307.8" y2="141.9"/>
			<line class="st15" x1="293.9" y1="112.5" x2="293.9" y2="129"/>
			<line class="st15" x1="233.1" y1="269" x2="233.1" y2="285.6"/>
			<line class="st15" x1="214.7" y1="269" x2="214.7" y2="285.6"/>
			<line class="st15" x1="128.1" y1="269" x2="128.1" y2="285.6"/>
			<line class="st15" x1="319.7" y1="112.5" x2="319.7" y2="129"/>
			<line class="st15" x1="126.3" y1="112.5" x2="126.3" y2="129"/>
			<line class="st15" x1="152.1" y1="112.5" x2="152.1" y2="129"/>
			<rect x="53" y="142" class="st16" width="346.9" height="116.9"/>
			
				<pattern  id="SVGID_00000155127982783197478880000007270543397977292674_" xlink:href="#Grid_1_pica_Lines" patternTransform="matrix(1 0 0 1 -28 -28)">
			</pattern>
			
				<rect x="53" y="142" style="fill:url(#SVGID_00000155127982783197478880000007270543397977292674_);" width="346.9" height="116.9"/>
			<line class="st15" x1="223.2" y1="258.9" x2="223.2" y2="398.5"/>
			<line class="st15" x1="139.1" y1="258.9" x2="139.1" y2="398.9"/>
			<line class="st15" x1="139.1" y1="141.9" x2="139.1" y2="9.3"/>
		</g>
		<g>
			<rect x="223.7" y="9.3" class="st18" width="83.6" height="132.6"/>
			<polygon class="st19" points="223.9,9.3 201.8,0.1 201.8,147.5 223.9,141.9 			"/>
			<line class="st15" x1="307.7" y1="43.4" x2="224" y2="43.4"/>
			<line class="st15" x1="307.7" y1="90.4" x2="224" y2="90.4"/>
			<g>
				<g>
					<path class="st20" d="M297.8,113.7v2.6c0,1.3-1,2.3-2.3,2.3h0l1.1,18.1c0,0.7-0.5,1.2-1.2,1.2h-23.7c-0.7,0-1.2-0.5-1.2-1.2
						l1.2-18.2c-1.1-0.2-2-1.1-2-2.3v-2.6c0-1.3,1-2.3,2.3-2.3h23.6C296.8,111.4,297.8,112.4,297.8,113.7z"/>
					<path class="st11" d="M295.4,138.6h-23.7c-1,0-1.8-0.8-1.8-1.8L271,119c-1.1-0.4-1.9-1.5-1.9-2.7v-2.6c0-1.6,1.3-2.9,2.9-2.9
						h23.6c1.6,0,2.9,1.3,2.9,2.9v2.6c0,1.4-1,2.6-2.3,2.8l1.1,17.6C297.2,137.8,296.4,138.6,295.4,138.6z M271.9,112
						c-1,0-1.8,0.8-1.8,1.8v2.6c0,0.9,0.6,1.6,1.5,1.7l0.5,0.1l-1.2,18.7c0,0.3,0.3,0.6,0.7,0.6h23.7c0.4,0,0.7-0.3,0.7-0.7
						l-1.2-18.7h0.6c1,0,1.8-0.8,1.8-1.8v-2.6c0-1-0.8-1.8-1.8-1.8H271.9z"/>
				</g>
				<g>
					<circle class="st14" cx="291.2" cy="115.5" r="0.2"/>
					<path class="st14" d="M291.2,115.9c-0.2,0-0.4-0.2-0.4-0.4c0-0.2,0.2-0.4,0.4-0.4s0.4,0.2,0.4,0.4
						C291.6,115.7,291.4,115.9,291.2,115.9z M291.2,115.5l-0.2,0L291.2,115.5C291.2,115.5,291.2,115.5,291.2,115.5z"/>
				</g>
				<g>
					<circle class="st14" cx="290.1" cy="118.1" r="0.6"/>
					<path class="st14" d="M290.1,118.9c-0.4,0-0.8-0.3-0.8-0.8c0-0.4,0.3-0.8,0.8-0.8c0.4,0,0.8,0.3,0.8,0.8
						C290.8,118.5,290.5,118.9,290.1,118.9z M290.1,117.7c-0.2,0-0.4,0.2-0.4,0.4s0.2,0.4,0.4,0.4c0.2,0,0.4-0.2,0.4-0.4
						S290.3,117.7,290.1,117.7z"/>
				</g>
				<g>
					<circle class="st14" cx="286.9" cy="116.1" r="0.8"/>
					<path class="st14" d="M286.9,117c-0.5,0-0.9-0.4-0.9-0.9c0-0.5,0.4-0.9,0.9-0.9c0.5,0,0.9,0.4,0.9,0.9
						C287.8,116.6,287.4,117,286.9,117z M286.9,115.5c-0.3,0-0.6,0.3-0.6,0.6c0,0.3,0.3,0.6,0.6,0.6s0.6-0.3,0.6-0.6
						C287.4,115.7,287.2,115.5,286.9,115.5z"/>
				</g>
				<g>
					<circle class="st14" cx="278.8" cy="133.1" r="0.6"/>
					<path class="st14" d="M278.8,133.9c-0.4,0-0.8-0.3-0.8-0.8s0.3-0.8,0.8-0.8s0.8,0.3,0.8,0.8S279.2,133.9,278.8,133.9z
						 M278.8,132.8c-0.2,0-0.4,0.2-0.4,0.4c0,0.2,0.2,0.4,0.4,0.4s0.4-0.2,0.4-0.4C279.2,132.9,279,132.8,278.8,132.8z"/>
				</g>
				<g>
					<circle class="st14" cx="276" cy="132.2" r="0.8"/>
					<path class="st14" d="M276,133.1c-0.5,0-0.9-0.4-0.9-0.9s0.4-0.9,0.9-0.9c0.5,0,0.9,0.4,0.9,0.9S276.5,133.1,276,133.1z
						 M276,131.6c-0.3,0-0.6,0.3-0.6,0.6s0.3,0.6,0.6,0.6s0.6-0.3,0.6-0.6S276.3,131.6,276,131.6z"/>
				</g>
				<g>
					<circle class="st14" cx="274.7" cy="121.1" r="0.6"/>
					<path class="st14" d="M274.7,121.9c-0.4,0-0.8-0.3-0.8-0.8c0-0.4,0.3-0.8,0.8-0.8c0.4,0,0.8,0.3,0.8,0.8
						C275.4,121.5,275.1,121.9,274.7,121.9z M274.7,120.7c-0.2,0-0.4,0.2-0.4,0.4c0,0.2,0.2,0.4,0.4,0.4c0.2,0,0.4-0.2,0.4-0.4
						C275,120.9,274.9,120.7,274.7,120.7z"/>
				</g>
			</g>
		</g>
	</g>
</g>
<g id="Layer_3">
	<g>
		<rect x="0" y="0" class="st4" width="400" height="400"/>
		<rect x="223.3" y="54.7" class="st6" width="150.9" height="345.3"/>
		<path class="st15" d="M374.1,275.2c-134,0-150.9,0-150.9,0"/>
		<line class="st15" x1="234.9" y1="227.7" x2="234.9" y2="253.8"/>
		<line class="st15" x1="234.9" y1="291.6" x2="234.9" y2="317.7"/>
		<rect x="0" y="53.9" class="st14" width="223" height="118.1"/>
		<rect x="0.2" y="276.1" class="st14" width="223" height="123.9"/>
		<line class="st15" x1="141.3" y1="276.1" x2="141.3" y2="400"/>
		<line class="st15" x1="66" y1="276.1" x2="66" y2="400"/>
		<line class="st15" x1="222.4" y1="301.2" x2="141.3" y2="301.2"/>
		<line class="st15" x1="222.4" y1="327.4" x2="141.3" y2="327.4"/>
		<line class="st15" x1="222.4" y1="353.6" x2="141.3" y2="353.6"/>
		<line class="st15" x1="193.8" y1="288.1" x2="169.3" y2="288.1"/>
		<line class="st15" x1="193.8" y1="314.3" x2="169.3" y2="314.3"/>
		<line class="st15" x1="193.8" y1="340.6" x2="169.3" y2="340.6"/>
		<line class="st15" x1="193.8" y1="366.8" x2="169.3" y2="366.8"/>
		<line class="st15" x1="66" y1="53.9" x2="66" y2="171.9"/>
		<line class="st15" x1="141.3" y1="53.9" x2="141.3" y2="171.9"/>
		<line class="st15" x1="129" y1="145.7" x2="129" y2="160.4"/>
		<line class="st15" x1="74.9" y1="285.1" x2="74.9" y2="299.8"/>
		<line class="st15" x1="58.5" y1="285.1" x2="58.5" y2="299.8"/>
		<line class="st15" x1="151.9" y1="145.7" x2="151.9" y2="160.4"/>
		<rect x="0.2" y="172" class="st16" width="223" height="104.1"/>
		
			<pattern  id="SVGID_00000177472249660184313020000009421865549863580088_" xlink:href="#Grid_1_pica_Lines" patternTransform="matrix(1 0 0 1 -28 -28)">
		</pattern>
		
			<rect x="0.2" y="172" style="fill:url(#SVGID_00000177472249660184313020000009421865549863580088_);" width="223" height="104.1"/>
		<g class="st2">
			
				<linearGradient id="SVGID_00000160906213694638631280000000044740220823312794_" gradientUnits="userSpaceOnUse" x1="298.6916" y1="54.6798" x2="298.6916" y2="274.4152">
				<stop  offset="0" style="stop-color:#FFFFFF"/>
				<stop  offset="1" style="stop-color:#CCCCCC"/>
			</linearGradient>
			
				<rect x="223.3" y="54.7" style="display:inline;fill:url(#SVGID_00000160906213694638631280000000044740220823312794_);" width="150.9" height="219.7"/>
			
				<linearGradient id="SVGID_00000103963562415339470430000016301883768037591463_" gradientUnits="userSpaceOnUse" x1="298.6916" y1="162.9077" x2="298.6916" y2="54.6798">
				<stop  offset="0" style="stop-color:#FFFFFF;stop-opacity:0"/>
				<stop  offset="0.9987" style="stop-color:#FCEE21;stop-opacity:0.5"/>
			</linearGradient>
			<polygon style="display:inline;fill:url(#SVGID_00000103963562415339470430000016301883768037591463_);" points="272.5,54.7 
				315.1,54.7 374.1,162.9 223.3,162.9 			"/>
			<line class="st24" x1="374.1" y1="140" x2="223.3" y2="140"/>
			<line class="st24" x1="374.1" y1="210.5" x2="223.3" y2="210.5"/>
			<g class="st3">
				<polyline class="st25" points="326.1,111.4 326.1,128.3 276.5,138.1 268.9,126.6 268.9,110.4 				"/>
				<polygon class="st25" points="326.1,111.4 276.5,120 268.9,110.4 				"/>
				<line class="st25" x1="276.5" y1="120" x2="276.5" y2="138.1"/>
				<circle class="st26" cx="312.8" cy="120" r="1.9"/>
				
					<ellipse transform="matrix(0.949 -0.3152 0.3152 0.949 -21.5951 99.7144)" class="st26" cx="297.5" cy="116.6" rx="2.9" ry="2.4"/>
				<circle class="st26" cx="281.8" cy="131.9" r="3.3"/>
				<circle class="st26" cx="272.7" cy="121.9" r="1"/>
			</g>
			<polygon class="st27" points="400,284.3 374.1,274.4 374.1,54.7 400,46.5 			"/>
		</g>
	</g>
</g>
</svg>
